<?xml version="1.0" encoding="UTF-8" standalone="no"?><svg width="157" height="17" viewBox="0 0 157 17" fill="none" xmlns="http://www.w3.org/2000/svg">
<path d="M7.12183 1.26352L3.23373 10.1139C2.33287 12.0981 1.74011 13.3875 1.4584 13.9791C1.07693 14.7774 0.592752 15.702 0 16.7502H2.04822C2.01888 16.2821 2.00714 16.0122 2.00714 15.9432C2.00714 14.8549 2.31819 13.5024 2.93735 11.8914H8.23984L10.3732 16.7502H14.0294L7.20399 1.26352H7.12183ZM3.08701 11.5209C3.18385 11.2453 3.36284 10.8318 3.6152 10.2804L5.58126 5.79494L8.09605 11.5209H3.08701ZM26.5154 5.31824H26.6005V16.753H23.4959V6.04189L26.5154 5.31824ZM38.0095 15.8829C37.898 15.6762 37.8393 15.2569 37.8393 14.6223V9.3299C37.8393 6.69662 36.3457 5.38142 33.3614 5.38142C32.4047 5.38142 31.5831 5.52213 30.8994 5.80642C30.2157 6.08784 29.5378 6.53294 28.86 7.13885L29.0507 7.36571C30.0513 6.59325 31.0931 6.20845 32.1788 6.20845C33.2205 6.20845 33.8984 6.50422 34.2065 7.09865C34.5439 7.67872 34.7141 8.49139 34.7141 9.53953V10.6767C34.1654 10.7313 33.511 10.7858 32.7481 10.8432C31.2985 10.9954 30.1599 11.3774 29.3353 11.9919C28.5108 12.6064 28.1 13.3818 28.1 14.3179C28.1 15.1047 28.3758 15.7422 28.9245 16.2304C29.4733 16.7186 30.1922 16.9655 31.0784 16.9655C32.4722 16.9655 33.69 16.4429 34.7347 15.3948C34.9313 16.4429 35.6561 16.9655 36.912 16.9655C37.7865 16.9655 38.5729 16.7387 39.2771 16.2821V16.1586C39.0512 16.1873 38.9103 16.1988 38.8546 16.1988C38.4056 16.1931 38.1239 16.0897 38.0095 15.8829ZM34.7141 14.9927C34.095 15.6417 33.4465 15.9633 32.7715 15.9633C32.2786 15.9633 31.8795 15.7853 31.5772 15.4264C31.275 15.0674 31.1224 14.5649 31.1224 13.9159C31.1224 12.2331 32.3196 11.2568 34.7141 10.9811V14.9927ZM51.2349 9.32703V16.7502H48.1303V9.03699C48.1303 8.36216 48.01 7.73328 47.7723 7.15608C47.5463 6.60473 47.0035 6.32906 46.1466 6.32906C45.3162 6.32906 44.4975 6.72247 43.6964 7.50642V16.7473H40.5918V6.03615L43.6142 5.3125H43.6993V7.11014C44.8115 5.95287 46.0879 5.37281 47.5229 5.37281C49.9966 5.37855 51.2349 6.69662 51.2349 9.32703ZM59.0111 5.37855C57.2211 5.37855 55.7598 5.93277 54.6271 7.04409C53.4944 8.15253 52.9251 9.61132 52.9251 11.4176C52.9251 13.1003 53.4445 14.45 54.4891 15.4694C55.5309 16.4889 56.869 17 58.5034 17C60.716 17 62.4884 16.0351 63.8265 14.1054L63.5741 13.9618C62.5881 15.1737 61.3762 15.7824 59.9413 15.7824C58.7734 15.7824 57.8491 15.3345 57.1741 14.4385C56.4992 13.5426 56.1588 12.2475 56.1588 10.5503V10.4671H63.8499C63.9204 8.97956 63.5448 7.75912 62.7202 6.80862C61.8956 5.85524 60.6573 5.37855 59.0111 5.37855ZM61.0798 10.134H56.1559C56.2263 8.81013 56.4933 7.75051 56.9599 6.94932C57.4382 6.10794 58.0662 5.68868 58.8409 5.68868C59.5158 5.68868 60.0675 6.01892 60.49 6.68227C60.9126 7.34274 61.1239 8.21284 61.1239 9.28682C61.1239 9.32703 61.1092 9.61132 61.0798 10.134ZM79.8836 12.4083C79.8836 13.7034 79.3877 14.7917 78.3929 15.6762C77.4011 16.5578 76.0659 17 74.3904 17C73.5042 17 72.5182 16.8823 71.4325 16.6497C70.3907 16.4027 69.6659 16.173 69.2551 15.9662L69.7422 14.1887C70.1941 14.8922 70.8984 15.4838 71.855 15.9662C72.7999 16.4343 73.736 16.6698 74.6662 16.6698C75.6111 16.6698 76.3593 16.4228 76.9169 15.926C77.4744 15.4292 77.7503 14.7946 77.7503 14.025C77.7503 13.4449 77.58 12.9568 77.2426 12.5576C76.9315 12.1728 76.5736 11.8541 76.1657 11.6071C75.7578 11.3601 75.1592 11.0701 74.3698 10.7399L73.3134 10.3063C72.5241 9.96166 71.9049 9.64578 71.453 9.35574C70.1002 8.5 69.4253 7.32264 69.4253 5.82078C69.4253 4.56588 69.9154 3.52635 70.8925 2.69933C71.8726 1.8723 73.1432 1.45878 74.7073 1.45878C75.5524 1.45878 76.3975 1.57652 77.2426 1.80912C78.073 2.0446 78.7069 2.27146 79.1441 2.49257L78.7215 4.08345C77.3688 2.55287 75.9397 1.78902 74.4314 1.78902C73.557 1.78902 72.8644 2.0245 72.3509 2.49257C71.8374 2.96064 71.5792 3.55507 71.5792 4.2701C71.6203 5.02821 71.8902 5.61689 72.3832 6.03902C72.8762 6.45828 73.6802 6.91199 74.7924 7.39443L75.8487 7.82804C76.5237 8.10372 77.1868 8.44257 77.8354 8.84173C79.2028 9.66014 79.8836 10.8519 79.8836 12.4083ZM91.1664 13.9188L91.4188 14.0623C90.11 16.0208 88.4462 16.9971 86.4332 16.9971C84.8838 16.9971 83.5927 16.4774 82.5568 15.435C81.521 14.3954 81.0045 13.0343 81.0045 11.3515C80.9752 9.60271 81.5474 8.16115 82.7153 7.02973C83.8832 5.89831 85.2917 5.34696 86.9408 5.37568C88.7426 5.37568 90.1951 5.98159 91.2926 7.19628L90.2156 8.12669C89.6933 7.27095 89.2092 6.65068 88.7573 6.26588C88.3054 5.88108 87.7918 5.68581 87.2137 5.68581C86.3276 5.68581 85.6262 6.1223 85.1127 6.99815C84.5992 7.87399 84.3409 9.0772 84.3409 10.6049C84.3409 12.2733 84.6461 13.5512 85.2594 14.4414C85.8727 15.3316 86.7208 15.7738 87.8065 15.7738C89.1182 15.7796 90.2362 15.1593 91.1664 13.9188ZM103.441 9.32703V16.7502H100.313V9.03699C100.313 8.36216 100.193 7.73328 99.955 7.15608C99.729 6.60473 99.195 6.32906 98.3499 6.32906C97.5194 6.32906 96.7007 6.72247 95.8996 7.50642V16.7473H92.7715V0.867231L95.8145 0H95.8996V7.09291C97.0411 5.95 98.3088 5.37568 99.7026 5.37568C102.194 5.37855 103.441 6.69662 103.441 9.32703ZM106.111 2.92331C105.654 2.47534 105.654 1.74882 106.111 1.29797L107.247 0.186658L108.374 1.30084C108.826 1.74882 108.826 2.4696 108.374 2.91757L107.247 4.03176L106.111 2.92331ZM108.702 5.31824H108.788V16.753H105.683V6.04189L108.702 5.31824ZM128.067 6.37213C128.692 7.0326 129.006 8.02044 129.006 9.3299V16.753H125.878V9.03986C125.878 8.36503 125.757 7.73615 125.52 7.15896C125.294 6.6076 124.765 6.33193 123.935 6.33193C123.105 6.33193 122.259 6.79426 121.4 7.71605C121.541 8.12956 121.611 8.66656 121.611 9.3299V16.753H118.506V9.03986C118.506 8.36503 118.386 7.73615 118.148 7.15896C117.922 6.6076 117.388 6.33193 116.543 6.33193C115.725 6.33193 114.953 6.71672 114.219 7.48919V16.753H111.115V6.04189L114.137 5.31824H114.222V7.09578C114.785 6.50423 115.355 6.06774 115.933 5.79206C116.511 5.51639 117.18 5.37855 117.94 5.37855C119.645 5.37855 120.763 6.03902 121.3 7.36284C121.904 6.67365 122.518 6.17112 123.137 5.85237C123.756 5.53649 124.49 5.37568 125.335 5.37568C126.526 5.37855 127.439 5.70879 128.067 6.37213ZM134.267 5.31824H134.352V16.753H131.248V6.04189L134.267 5.31824ZM131.673 2.92331C131.215 2.47534 131.215 1.74882 131.673 1.29797L132.809 0.186658L133.935 1.30084C134.387 1.74882 134.387 2.4696 133.935 2.91757L132.809 4.03176L131.673 2.92331ZM147.704 0.00287443H147.619L144.596 0.870101V6.28598C143.807 5.68007 142.871 5.37568 141.785 5.37568C140.206 5.37568 138.868 5.95 137.771 7.10152C136.673 8.25304 136.122 9.68885 136.122 11.4118C136.122 13.0257 136.585 14.3581 137.515 15.412C138.446 16.4659 139.599 16.9943 140.981 16.9943C142.348 16.9943 143.566 16.4085 144.637 15.2368L145.207 16.9742L148.164 16.2103L147.701 14.7831V0.00287443H147.704ZM144.599 14.7458C143.81 15.6417 142.973 16.0897 142.084 16.0897C140.309 16.0897 139.423 14.4557 139.423 11.1907C139.423 9.45338 139.663 8.10659 140.142 7.14747C140.62 6.18834 141.304 5.71166 142.19 5.71166C142.739 5.71166 143.229 5.90119 143.657 6.28024C144.086 6.65929 144.4 7.17905 144.596 7.8424V14.7458H144.599ZM157 15.7997C155.832 16.598 154.691 17 153.578 17C152.352 17 151.542 16.7042 151.149 16.1098C150.741 15.5039 150.535 14.8204 150.535 14.0623V6.0821H149.142V5.73176L150.494 5.62838L153.558 1.80338H153.643V5.62838H156.959L156.683 6.0821H153.64V14.1657C153.64 14.6481 153.725 15.0904 153.892 15.4895C154.074 15.8743 154.485 16.0696 155.119 16.0696C155.653 16.0696 156.225 15.8973 156.83 15.5527L157 15.7997ZM23.9243 2.92331C23.4665 2.47534 23.4665 1.74882 23.9243 1.29797L25.0599 0.186658L26.1867 1.30084C26.6386 1.74882 26.6386 2.4696 26.1867 2.91757L25.0599 4.03176L23.9243 2.92331ZM22.865 5.95575C22.2751 7.42314 21.3919 8.06065 19.9628 7.82804C18.0672 7.51791 18.1523 9.3701 18.1523 9.3701V16.7502H15.0477V6.03902L17.985 5.31537H18.0701V8.72686C19.2908 4.70372 22.1108 5.72314 22.865 5.95575Z" fill="#323E47"/>
</svg>
