<?xml version="1.0" encoding="UTF-8" standalone="no"?><svg width="46" height="34" viewBox="0 0 46 34" fill="none" xmlns="http://www.w3.org/2000/svg">
<path fill-rule="evenodd" clip-rule="evenodd" d="M22.4137 0.280029L13.0337 15.3923C14.6659 15.8161 16.0812 16.6932 17.2574 18.0124C18.886 19.7421 19.696 21.8654 19.696 24.32C19.696 27.0489 18.7422 29.3005 16.7934 30.9617C14.9867 32.5744 12.8311 33.384 10.376 33.384C7.7713 33.384 5.52427 32.5874 3.70267 30.9617C1.73796 29.2866 0.800049 26.9393 0.800049 24.064C0.800049 21.3424 1.82867 18.3898 3.75742 15.2313C5.57142 12.1227 8.49035 7.70363 12.5008 1.98656M12.5008 1.98656L13.6954 0.280029H22.4137M4.61605 15.744C2.73872 18.816 1.80005 21.5894 1.80005 24.064C1.80005 26.7094 2.65338 28.7574 4.36005 30.208C5.98138 31.6587 7.98672 32.384 10.376 32.384C12.5947 32.384 14.5147 31.6587 16.136 30.208C17.8427 28.7574 18.696 26.7947 18.696 24.32C18.696 22.1014 17.9707 20.224 16.52 18.688C15.4017 17.4299 14.0543 16.6298 12.4779 16.2877C12.1298 16.2121 11.7705 16.1589 11.4 16.128L20.6161 1.28003H14.216L13.32 2.56003C9.30938 8.27736 6.40805 12.672 4.61605 15.744ZM45.1977 0.280029L35.8177 15.3923C37.4499 15.8161 38.8652 16.6932 40.0415 18.0124C41.67 19.7421 42.4801 21.8654 42.4801 24.32C42.4801 27.0489 41.5262 29.3005 39.5774 30.9617C37.7707 32.5744 35.6151 33.384 33.16 33.384C30.5506 33.384 28.2685 32.5851 26.3684 30.97L26.3587 30.9617L26.3493 30.9533C24.4708 29.2726 23.584 26.9272 23.584 24.064C23.584 21.3514 24.5638 18.4021 26.4083 15.2402L26.4134 15.2313L26.4188 15.2226C28.3129 12.1231 31.2713 7.70794 35.2848 1.98657M35.2854 1.98575L36.4794 0.280029H45.1977M36.104 2.56003C32.0934 8.27736 29.1494 12.672 27.272 15.744C25.48 18.816 24.584 21.5894 24.584 24.064C24.584 26.7094 25.3947 28.7574 27.016 30.208C28.7227 31.6587 30.7707 32.384 33.16 32.384C35.3787 32.384 37.2987 31.6587 38.9201 30.208C40.6267 28.7574 41.4801 26.7947 41.4801 24.32C41.4801 22.1014 40.7547 20.224 39.3041 18.688C38.1857 17.4299 36.8383 16.6298 35.2619 16.2877C34.9138 16.2121 34.5545 16.1589 34.1841 16.128L43.4001 1.28003H37L36.104 2.56003Z" fill="#62696F"/>
</svg>
